<svg width="113" height="62" viewBox="0 0 113 62" fill="none" xmlns="http://www.w3.org/2000/svg">
<path d="M43.4351 60.3578C42.7136 60.3706 42.1768 60.3801 41.4615 60.3927C41.4269 58.4422 41.465 56.5616 41.3217 54.692C41.2695 54.0223 40.8734 52.8687 40.4705 52.8165C39.1575 52.6448 37.7526 52.8015 36.4248 53.0213C36.1524 53.0656 35.9194 53.9287 35.9125 54.4163C35.8869 56.3877 35.9575 58.3599 35.9946 60.4527C35.3398 60.4643 34.7689 60.4744 34.1001 60.4863C34.046 57.4321 33.9927 54.42 33.9369 51.2736C34.5059 51.2385 35.0392 51.204 35.6795 51.1637C35.7813 51.5651 35.8713 51.9139 35.9697 52.2995C37.9664 50.591 41.0443 50.5983 42.9968 52.2606C44.3207 51.0357 47.0617 50.4246 48.8064 51.2249C49.5841 51.5827 50.424 52.4716 50.5018 53.1803C50.752 55.4774 50.6612 57.8017 50.704 60.2132C50.1563 60.2229 49.6225 60.2324 48.8824 60.2455C48.8486 58.3345 48.8867 56.4564 48.7449 54.5882C48.6942 53.9145 48.3136 52.7553 47.9106 52.6992C46.6006 52.5196 45.194 52.6709 43.866 52.8815C43.5983 52.9245 43.359 53.7838 43.3536 54.2674C43.328 56.2413 43.3971 58.2137 43.4351 60.3578ZM76.191 51.8359C74.3185 53.1971 72.3417 54.2782 70.4173 55.4242C69.2239 56.1343 68.6404 57.1025 69.0714 58.3885C69.4974 59.6602 70.6983 59.8985 71.9728 59.9115C74.084 59.9334 76.2002 59.8893 78.3093 59.7927C78.6645 59.7771 79.295 59.3602 79.294 59.131C79.2956 56.94 79.2381 54.7475 79.0923 52.5605C79.0057 51.2657 77.9858 50.5552 76.5403 50.5268C74.1866 50.4802 71.8278 50.5866 69.4135 50.6293C69.4215 51.0797 69.4279 51.4446 69.437 51.9556C71.7411 51.9148 73.9661 51.8753 76.191 51.8359ZM77.2295 58.2401C75.425 58.272 73.562 58.4144 71.7253 58.2928C70.7774 58.2292 70.6503 57.0155 71.6019 56.4097C73.3239 55.3147 75.1568 54.3455 77.1404 53.2103C77.1716 54.9738 77.1985 56.4897 77.2295 58.2401ZM20.4632 51.3463C19.104 51.1952 17.6708 51.2443 16.3113 51.4265C14.221 51.7072 13.1717 52.6691 12.9411 54.5466C12.6724 56.7225 12.1803 59.1738 14.8638 60.4872C17.1403 61.5996 19.7983 61.3905 22.1584 60.3895C24.1703 59.5358 24.2843 57.8263 24.1831 56.2327C24.1262 53.0192 23.138 51.6454 20.4632 51.3463ZM14.8733 54.8905C14.9414 53.4783 15.54 52.921 17.1738 52.7168C21.2436 52.2099 22.0767 52.8025 22.1316 56.2506C22.1394 56.7761 22.1425 57.3044 22.0882 57.8284C22.0577 58.1253 21.9656 58.4418 21.7995 58.703C21.2454 59.5784 18.5762 60.0367 16.6222 59.6049C15.3664 59.3281 14.9718 58.5183 14.9199 57.5206C14.8967 57.0823 14.9013 56.6435 14.8935 56.2049C14.8842 55.7677 14.8532 55.3282 14.8733 54.8905ZM1.44922 61.0937C2.11485 61.0819 2.6548 61.0723 3.38249 61.0594C3.35188 59.3315 3.32276 57.6878 3.29135 55.9151C6.08264 55.8657 8.69085 55.8195 11.4309 55.7709C11.3778 55.2238 11.338 54.8174 11.2831 54.2611C8.54459 54.3096 5.9457 54.3557 3.33749 54.4019C3.31556 53.1639 3.29645 52.0852 3.27445 50.8433C6.06419 50.7938 8.77169 50.7459 11.5226 50.6971C11.5126 50.1282 11.5054 49.7252 11.4975 49.2761C8.04365 49.3372 4.7031 49.3964 1.24308 49.4577C1.31329 53.4207 1.38118 57.2532 1.44922 61.0937ZM53.0701 57.8947C53.147 59.166 54.031 60.0937 55.5993 60.1304C57.9532 60.1849 60.3134 60.0719 62.7277 60.0292C62.6723 56.9039 62.6184 53.8602 62.5639 50.7862C61.9138 50.7978 61.3816 50.8072 60.6989 50.8193C60.7452 53.4296 60.7899 55.9557 60.8375 58.6411C59.6241 58.6626 58.5552 58.6868 57.4876 58.6992C55.2345 58.7246 54.8958 58.4447 54.8571 56.5232C54.8193 54.6518 54.7892 52.7803 54.7558 50.8903C54.0281 50.9032 53.5269 50.9121 52.9187 50.9229C52.9616 53.3436 52.9321 55.6233 53.0701 57.8947ZM90.7916 56.9327C90.7434 54.6517 90.7263 52.3702 90.6502 50.091C90.616 49.0377 90.3816 47.9839 88.8188 47.9023C87.4999 47.8334 86.1684 47.9308 84.8294 47.9545C84.8386 48.4774 84.8454 48.8606 84.855 49.4006C85.7859 49.3841 86.6598 49.3001 87.5087 49.3852C87.8835 49.4234 88.5031 49.7931 88.5135 50.0314C88.632 52.6892 88.6527 55.3501 88.7022 58.1396C87.253 58.1653 85.9884 58.1877 84.6587 58.2112C84.6684 58.7538 84.6756 59.1634 84.684 59.6362C87.9516 59.5784 91.1215 59.5222 94.3907 59.4643C94.3822 58.9849 94.3749 58.5766 94.366 58.0722C93.207 58.0927 92.1426 58.1116 90.8998 58.1336C90.8518 57.614 90.7992 57.2738 90.7916 56.9327ZM27.9776 55.6886C27.9283 52.903 27.9283 52.9044 31.2562 52.744C31.4516 52.7339 31.6464 52.6936 31.905 52.6587C31.8964 52.1753 31.8886 51.7368 31.8805 51.2771C30.6129 51.2996 29.4792 51.2604 28.3587 51.3553C27.1174 51.4603 26.1231 52.0207 26.1028 53.1554C26.0583 55.6343 26.1628 58.1158 26.208 60.6682C26.8364 60.6571 27.3282 60.6484 28.0652 60.6353C28.0347 58.914 28.0062 57.3006 27.9776 55.6886ZM65.467 59.9411C66.1001 59.9299 66.6292 59.9205 67.1598 59.9111C67.0902 55.9824 67.0224 52.1538 66.9544 48.3133C66.3306 48.3244 65.8357 48.3332 65.2616 48.3433C65.3306 52.2378 65.3984 56.0677 65.467 59.9411Z" fill="url(#paint0_linear_7_33)"/>
<path d="M0.354959 45.7438L17.5357 31.3401C17.5357 31.3401 22.6827 25.489 34.069 25.1608C45.5547 24.8296 79.5272 24.3555 79.5272 24.3555L70.9445 31.992L34.2016 32.6429C34.2016 32.6429 29.103 32.8175 26.4291 35.7238L14.8116 45.4323L0.354959 45.7438ZM29.7441 45.2613L32.7435 42.5904C33.5489 41.8819 34.7608 41.1674 36.21 41.1417C37.0277 41.1273 39.4776 41.0838 39.4776 41.0838L60.9437 40.7036L68.9203 33.8143L35.2743 34.4104C29.8516 34.5064 26.8565 37.334 26.8565 37.334L17.4903 45.51L29.7441 45.2613ZM59.3807 44.6414L73.5683 44.3901L96.3942 24.3083L82.1337 24.561C82.1321 24.561 59.5259 44.5137 59.3807 44.6414Z" fill="url(#paint1_linear_7_33)"/>
<defs>
<linearGradient id="paint0_linear_7_33" x1="47.7135" y1="48.5831" x2="47.9284" y2="60.7103" gradientUnits="userSpaceOnUse">
<stop stop-color="white"/>
<stop offset="1" stop-color="white"/>
</linearGradient>
<linearGradient id="paint1_linear_7_33" x1="0.178099" y1="35.7607" x2="96.5653" y2="34.0531" gradientUnits="userSpaceOnUse">
<stop stop-color="white"/>
<stop offset="1" stop-color="white"/>
</linearGradient>
</defs>
</svg>
